<?xml version="1.0" ?><!DOCTYPE svg  PUBLIC '-//W3C//DTD SVG 1.1//EN'  'http://www.w3.org/Graphics/SVG/1.1/DTD/svg11.dtd'><svg enable-background="new 0 0 98 150.5" height="150.5px" id="Capa_1" version="1.1" viewBox="0 0 98 150.5" width="98px" xml:space="preserve" xmlns="http://www.w3.org/2000/svg" xmlns:xlink="http://www.w3.org/1999/xlink"><g><path d="M85.757,48.076C70.24,37.755,52.811,34.189,32.146,40.113C16.015,44.738,1.231,63.082,0.087,78.798   c-1.352,18.571,13.114,34.479,38.593,34.452c27.47-0.027,37.753-13.219,37.979-17.228c0.226-4.008-10.716-11.421-3.677-19.039   c8.824-9.547,16.68-1.414,21.438-2.559C99.186,73.283,101.596,58.616,85.757,48.076z M53.887,94.664   c-4.154,0-7.521-3.357-7.521-7.5c0-4.144,3.366-7.5,7.521-7.5s7.521,3.356,7.521,7.5C61.408,91.307,58.041,94.664,53.887,94.664z"/></g></svg>